<?xml version="1.0" encoding="UTF-8"?>
<svg version="1.1" xmlns="http://www.w3.org/2000/svg" width="238" height="243">
<path d="M0 0 C78.54 0 157.08 0 238 0 C238 80.19 238 160.38 238 243 C159.46 243 80.92 243 0 243 C0 162.81 0 82.62 0 0 Z " fill="#46ADD7" transform="translate(0,0)"/>
<path d="M0 0 C78.54 0 157.08 0 238 0 C238 80.19 238 160.38 238 243 C159.46 243 80.92 243 0 243 C0 162.81 0 82.62 0 0 Z M78 21 C76.72873852 21.55062431 75.45536229 22.09639783 74.1796875 22.63671875 C53.29132289 32.11682269 38.08019052 47.90661507 26 67 C25.30648438 68.08925781 24.61296875 69.17851563 23.8984375 70.30078125 C16.5134013 82.41538318 12.70047501 94.77652775 12.6640625 108.94140625 C12.6574057 109.86735092 12.6507489 110.79329559 12.64389038 111.74729919 C12.63382296 113.69780512 12.62907152 115.64834508 12.62939453 117.59887695 C12.62504713 120.53071331 12.58873514 123.46100972 12.55078125 126.39257812 C12.46267109 140.82774216 13.73511365 154.39498294 20.8125 167.3125 C21.16014404 167.97290283 21.50778809 168.63330566 21.8659668 169.3137207 C22.88610827 171.22407449 23.93449793 173.11464176 25 175 C25.556875 175.98742187 26.11375 176.97484375 26.6875 177.9921875 C41.2656649 202.17231678 64.59441399 219.56098298 91.72265625 227.22265625 C121.13014386 234.19773377 151.88985257 229.8783767 177.859375 214.37011719 C202.44987469 198.63085119 220.08175834 174.15487039 226.52734375 145.640625 C226.68332031 144.76921875 226.83929688 143.8978125 227 143 C227.27263672 141.50339844 227.27263672 141.50339844 227.55078125 139.9765625 C231.35602109 112.12929695 226.34655698 81.6390494 209.29785156 58.80200195 C207.25031797 56.15630815 205.13499335 53.57587815 203 51 C202.40316406 50.24976563 201.80632812 49.49953125 201.19140625 48.7265625 C186.54001451 30.94813511 161.38038811 16.86404492 138.42468262 13.63809204 C132.32645715 13.08458606 126.2425428 13.09204789 120.125 13.1875 C119.20722778 13.19353241 118.28945557 13.19956482 117.34387207 13.20578003 C103.17451368 13.32931236 90.86941462 14.69849018 78 21 Z " fill="#FDFDFD" transform="translate(0,0)"/>
<path d="M0 0 C5.61280742 2.53105844 9.23309903 5.99345639 11.921875 11.609375 C13.86629178 17.45107933 14.10707714 24.21761108 11.72265625 29.9453125 C9.24349555 33.83924757 6.53691507 36.63798516 2.8828125 39.43359375 C1.1107949 40.78252257 1.1107949 40.78252257 -0.1796875 42.30859375 C-0.40236458 45.68682791 -0.40236458 45.68682791 0.8203125 49.30859375 C3.17734796 59.59073396 4.31439001 66.88093182 -1.1796875 76.30859375 C-3.57285719 80.03415601 -6.05862975 83.69164401 -8.57299805 87.33581543 C-10.70451335 90.42535075 -12.81973739 93.52602948 -14.9375 96.625 C-15.37261902 97.26073944 -15.80773804 97.89647888 -16.25604248 98.55148315 C-20.40135542 104.61467222 -24.47656756 110.72331685 -28.53881836 116.84234619 C-29.67234231 118.54754413 -30.80917207 120.25048586 -31.94726562 121.95263672 C-35.15505888 126.75218668 -38.3494128 131.55647611 -41.46875 136.4140625 C-42.41397895 137.85812761 -43.35928399 139.30214292 -44.3046875 140.74609375 C-44.69333984 141.37225586 -45.08199219 141.99841797 -45.48242188 142.64355469 C-48.54459733 147.2629903 -51.9807788 149.65166673 -57.1796875 151.30859375 C-62.99023099 152.34293133 -67.08501644 150.7703624 -72.0546875 147.74609375 C-73.16585937 147.08480469 -74.27703125 146.42351562 -75.421875 145.7421875 C-78.13467088 144.02357584 -80.76260689 142.20780455 -83.3828125 140.3515625 C-88.36806845 136.83069595 -93.4490926 133.46772736 -98.546875 130.11328125 C-100.27348812 128.97403505 -102.00004977 127.83471084 -103.7265625 126.6953125 C-106.40331451 124.92938601 -109.08158209 123.1659887 -111.76464844 121.40966797 C-114.38456975 119.69334829 -116.99747122 117.96676965 -119.609375 116.23828125 C-120.41043671 115.7173288 -121.21149841 115.19637634 -122.03683472 114.65963745 C-127.40291034 111.09123363 -131.72520027 107.45905971 -134.1796875 101.30859375 C-135.53014717 93.98800243 -133.05087461 89.33285512 -128.9921875 83.43359375 C-128.40284424 82.5415625 -127.81350098 81.64953125 -127.20629883 80.73046875 C-125.35449361 77.94279535 -123.48132932 75.17133276 -121.60021973 72.40344238 C-118.75733731 68.21106418 -115.93610526 64.00405862 -113.109375 59.80078125 C-109.27335051 54.09976194 -105.43304093 48.40177937 -101.57543945 42.71533203 C-100.96510361 41.81477081 -100.35476776 40.91420959 -99.72593689 39.98635864 C-98.5257697 38.21645016 -97.32402456 36.44761053 -96.12062073 34.67990112 C-93.51543988 30.83792652 -90.95150741 26.988955 -88.53759766 23.0234375 C-87.94353874 22.05567383 -87.94353874 22.05567383 -87.33747864 21.06835938 C-86.32129554 19.3956051 -85.32620253 17.71008628 -84.33325195 16.0234375 C-80.42524899 11.09689935 -75.50420029 9.02159462 -69.3359375 7.9296875 C-68.26166504 7.73205811 -67.18739258 7.53442871 -66.08056641 7.33081055 C-64.95827637 7.137854 -63.83598633 6.94489746 -62.6796875 6.74609375 C-60.34361996 6.32493943 -58.00768149 5.90306854 -55.671875 5.48046875 C-54.55135742 5.28130859 -53.43083984 5.08214844 -52.27636719 4.87695312 C-48.430016 4.1710003 -44.62344334 3.33764909 -40.8046875 2.49609375 C-33.78453158 1.07763759 -26.56795626 0.31125994 -19.515625 1.9140625 C-17.01964955 2.57763263 -17.01964955 2.57763263 -14.4296875 0.87109375 C-9.5727075 -1.46399279 -5.15449667 -1.63502851 0 0 Z " fill="#48AFD8" transform="translate(184.1796875,45.69140625)"/>
<path d="M0 0 C5.61280742 2.53105844 9.23309903 5.99345639 11.921875 11.609375 C13.86629178 17.45107933 14.10707714 24.21761108 11.72265625 29.9453125 C9.24349555 33.83924757 6.53691507 36.63798516 2.8828125 39.43359375 C1.1107949 40.78252257 1.1107949 40.78252257 -0.1796875 42.30859375 C-0.40236458 45.68682791 -0.40236458 45.68682791 0.8203125 49.30859375 C3.17734796 59.59073396 4.31439001 66.88093182 -1.1796875 76.30859375 C-3.57285719 80.03415601 -6.05862975 83.69164401 -8.57299805 87.33581543 C-10.70451335 90.42535075 -12.81973739 93.52602948 -14.9375 96.625 C-15.37261902 97.26073944 -15.80773804 97.89647888 -16.25604248 98.55148315 C-20.40135542 104.61467222 -24.47656756 110.72331685 -28.53881836 116.84234619 C-29.67234231 118.54754413 -30.80917207 120.25048586 -31.94726562 121.95263672 C-35.15505888 126.75218668 -38.3494128 131.55647611 -41.46875 136.4140625 C-42.41397895 137.85812761 -43.35928399 139.30214292 -44.3046875 140.74609375 C-44.69333984 141.37225586 -45.08199219 141.99841797 -45.48242188 142.64355469 C-48.54459733 147.2629903 -51.9807788 149.65166673 -57.1796875 151.30859375 C-62.99023099 152.34293133 -67.08501644 150.7703624 -72.0546875 147.74609375 C-73.16585937 147.08480469 -74.27703125 146.42351562 -75.421875 145.7421875 C-78.13467088 144.02357584 -80.76260689 142.20780455 -83.3828125 140.3515625 C-88.36806845 136.83069595 -93.4490926 133.46772736 -98.546875 130.11328125 C-100.27348812 128.97403505 -102.00004977 127.83471084 -103.7265625 126.6953125 C-106.40331451 124.92938601 -109.08158209 123.1659887 -111.76464844 121.40966797 C-114.38456975 119.69334829 -116.99747122 117.96676965 -119.609375 116.23828125 C-120.41043671 115.7173288 -121.21149841 115.19637634 -122.03683472 114.65963745 C-127.40291034 111.09123363 -131.72520027 107.45905971 -134.1796875 101.30859375 C-135.53014717 93.98800243 -133.05087461 89.33285512 -128.9921875 83.43359375 C-128.40284424 82.5415625 -127.81350098 81.64953125 -127.20629883 80.73046875 C-125.35449361 77.94279535 -123.48132932 75.17133276 -121.60021973 72.40344238 C-118.75733731 68.21106418 -115.93610526 64.00405862 -113.109375 59.80078125 C-109.27335051 54.09976194 -105.43304093 48.40177937 -101.57543945 42.71533203 C-100.96510361 41.81477081 -100.35476776 40.91420959 -99.72593689 39.98635864 C-98.5257697 38.21645016 -97.32402456 36.44761053 -96.12062073 34.67990112 C-93.51543988 30.83792652 -90.95150741 26.988955 -88.53759766 23.0234375 C-87.94353874 22.05567383 -87.94353874 22.05567383 -87.33747864 21.06835938 C-86.32129554 19.3956051 -85.32620253 17.71008628 -84.33325195 16.0234375 C-80.42524899 11.09689935 -75.50420029 9.02159462 -69.3359375 7.9296875 C-68.26166504 7.73205811 -67.18739258 7.53442871 -66.08056641 7.33081055 C-64.95827637 7.137854 -63.83598633 6.94489746 -62.6796875 6.74609375 C-60.34361996 6.32493943 -58.00768149 5.90306854 -55.671875 5.48046875 C-54.55135742 5.28130859 -53.43083984 5.08214844 -52.27636719 4.87695312 C-48.430016 4.1710003 -44.62344334 3.33764909 -40.8046875 2.49609375 C-33.78453158 1.07763759 -26.56795626 0.31125994 -19.515625 1.9140625 C-17.01964955 2.57763263 -17.01964955 2.57763263 -14.4296875 0.87109375 C-9.5727075 -1.46399279 -5.15449667 -1.63502851 0 0 Z M-44.7421875 10.12109375 C-46.6796769 10.49094095 -48.61717699 10.86073216 -50.5546875 11.23046875 C-51.5034375 11.41416016 -52.4521875 11.59785156 -53.4296875 11.78710938 C-55.94674794 12.26442126 -58.46624172 12.70934914 -60.9921875 13.13671875 C-62.07777954 13.32463989 -62.07777954 13.32463989 -63.18530273 13.51635742 C-65.11108897 13.84848412 -67.03793193 14.17446715 -68.96484375 14.5 C-74.22460245 15.82292837 -77.36284268 18.01549647 -80.34765625 22.515625 C-80.94368652 23.40459473 -81.5397168 24.29356445 -82.15380859 25.20947266 C-82.82234863 26.23218262 -83.49088867 27.25489258 -84.1796875 28.30859375 C-84.96770564 29.49955432 -85.75630983 30.69012728 -86.54541016 31.88037109 C-89.20936891 35.90915025 -91.85153404 39.95201607 -94.4921875 43.99609375 C-96.27906395 46.7297456 -98.06692664 49.46275017 -99.85546875 52.1953125 C-100.29590012 52.86841965 -100.73633148 53.54152679 -101.19010925 54.23503113 C-104.6748756 59.55404889 -108.19754867 64.84709279 -111.73040771 70.13424683 C-114.93896432 74.93886251 -118.10929889 79.76673606 -121.2421875 84.62109375 C-121.71333984 85.34748047 -122.18449219 86.07386719 -122.66992188 86.82226562 C-123.11787109 87.51513672 -123.56582031 88.20800781 -124.02734375 88.921875 C-124.41929932 89.52813721 -124.81125488 90.13439941 -125.21508789 90.7590332 C-127.1617725 93.88624334 -127.43314322 96.46745184 -127.703125 100.140625 C-126.48129675 105.20118229 -120.93527294 108.34233144 -116.8046875 111.06640625 C-115.75015381 111.76580322 -114.69562012 112.4652002 -113.60913086 113.18579102 C-112.4660977 113.93523345 -111.32294696 114.68449658 -110.1796875 115.43359375 C-108.99522639 116.21561374 -107.81106844 116.99809308 -106.62719727 117.78100586 C-103.47615945 119.86233495 -100.32 121.93576269 -97.16241455 124.00714111 C-95.14347439 125.33236387 -93.12597001 126.65974586 -91.10888672 127.98779297 C-87.11344658 130.6182935 -83.11607289 133.2458338 -79.1171875 135.87109375 C-78.16066284 136.49917938 -78.16066284 136.49917938 -77.18481445 137.13995361 C-75.38058532 138.32379651 -73.57527829 139.50597406 -71.76953125 140.6875 C-70.73691162 141.36369385 -69.70429199 142.0398877 -68.64038086 142.73657227 C-64.83137656 145.16996632 -62.74230937 145.66644645 -58.1796875 145.30859375 C-52.42184691 142.98986426 -49.84076058 137.81834908 -46.62890625 132.8125 C-46.01126907 131.86857895 -45.3936319 130.9246579 -44.75727844 129.95213318 C-42.78390105 126.93151023 -40.82531171 123.90162157 -38.8671875 120.87109375 C-37.56153267 118.86589423 -36.25490187 116.86132984 -34.94726562 114.85742188 C-32.44477291 111.02039469 -29.94692295 107.18041537 -27.45288086 103.33789062 C-23.74321469 97.62877861 -19.97825453 91.95898302 -16.1796875 86.30859375 C-14.53898756 83.85725558 -12.89932428 81.40522659 -11.25976562 78.953125 C-10.22154854 77.40047603 -9.18244367 75.84842042 -8.14257812 74.296875 C-7.38944336 73.16958984 -7.38944336 73.16958984 -6.62109375 72.01953125 C-5.95122437 71.01865479 -5.95122437 71.01865479 -5.26782227 69.99755859 C-2.36593341 65.49334789 -2.66517507 60.94165636 -3.66552734 55.82226562 C-4.35270623 53.05292954 -5.097072 50.30601396 -5.8671875 47.55859375 C-6.42058516 45.52639912 -6.97264188 43.49383891 -7.5234375 41.4609375 C-7.801875 40.43983887 -8.0803125 39.41874023 -8.3671875 38.36669922 C-9.15012522 35.4198609 -9.88002711 32.46614216 -10.5859375 29.5 C-10.80290283 28.59282227 -11.01986816 27.68564453 -11.2434082 26.75097656 C-11.64991817 25.03711144 -12.04982806 23.32166323 -12.44213867 21.60449219 C-13.41682758 17.54646534 -14.24748694 14.44359781 -17.1796875 11.30859375 C-22.16867592 12.48247338 -24.16626872 15.49171764 -27.04296875 19.43359375 C-28.35249422 21.22819256 -28.35249422 21.22819256 -28.1796875 23.30859375 C-27.5196875 23.30859375 -26.8596875 23.30859375 -26.1796875 23.30859375 C-23.54023527 28.5874982 -22.25362708 32.30933276 -23.1796875 38.30859375 C-24.88220469 41.38328898 -26.99195258 43.71472629 -30.1796875 45.30859375 C-33.93670608 45.83457635 -37.60719263 46.13622263 -41.03515625 44.33203125 C-43.84068451 42.07375418 -46.15849882 39.78063527 -47.1796875 36.30859375 C-47.63490949 31.30115187 -47.290808 28.30860583 -44.1796875 24.30859375 C-41.46021295 21.48839792 -40.33012723 21.31344664 -36.3046875 21.18359375 C-33.33127326 20.93905127 -32.43146181 20.57931881 -30.36328125 18.35546875 C-28.17001098 15.07877582 -26.42897838 12.05646639 -25.1796875 8.30859375 C-31.95906542 8.10859176 -38.09894587 8.8145445 -44.7421875 10.12109375 Z " fill="#F7FBFC" transform="translate(184.1796875,45.69140625)"/>
<path d="M0 0 C0.62949554 0.28239029 1.25899109 0.56478058 1.90756226 0.85572815 C3.23147417 1.45092275 4.55426301 2.04862111 5.87597656 2.64868164 C7.89640766 3.56548518 9.92050403 4.47377071 11.9453125 5.38085938 C21.83500824 9.83662008 21.83500824 9.83662008 25.2734375 12.12890625 C25.61401367 14.28369141 25.61401367 14.28369141 25.56640625 16.91796875 C25.55673828 17.85898438 25.54707031 18.8 25.53710938 19.76953125 C25.51197266 20.754375 25.48683594 21.73921875 25.4609375 22.75390625 C25.44063477 24.24277344 25.44063477 24.24277344 25.41992188 25.76171875 C25.38449493 28.21798697 25.33509946 30.6731791 25.2734375 33.12890625 C23.6234375 33.12890625 21.9734375 33.12890625 20.2734375 33.12890625 C20.6034375 27.51890625 20.9334375 21.90890625 21.2734375 16.12890625 C19.1078125 17.16015625 16.9421875 18.19140625 14.7109375 19.25390625 C9.26878768 21.7951426 3.80541824 24.28907444 -1.7265625 26.62890625 C-2.9021875 27.13421875 -4.0778125 27.63953125 -5.2890625 28.16015625 C-11.59754846 29.93800229 -16.64037954 27.98570355 -22.39453125 25.2578125 C-22.99662918 24.97542221 -23.59872711 24.69303192 -24.21907043 24.40208435 C-26.12164924 23.50721174 -28.01779217 22.59955763 -29.9140625 21.69140625 C-31.19686603 21.08574146 -32.48006631 20.48091627 -33.76367188 19.87695312 C-38.43970699 17.67154579 -43.11149955 15.4599089 -47.7265625 13.12890625 C-47.7265625 12.46890625 -47.7265625 11.80890625 -47.7265625 11.12890625 C-42.69822542 8.95748372 -37.66290544 6.80350704 -32.62036133 4.6652832 C-30.90642206 3.93564728 -29.19447831 3.20130501 -27.48461914 2.4621582 C-25.02480865 1.3997887 -22.5582904 0.35461724 -20.08984375 -0.6875 C-19.32819412 -1.02076797 -18.56654449 -1.35403595 -17.78181458 -1.69740295 C-10.65037841 -4.6711402 -6.99137828 -3.14799833 0 0 Z " fill="#FCFDFE" transform="translate(128.7265625,109.87109375)"/>
<path d="M0 0 C13.86 0 27.72 0 42 0 C42 5.61 42 11.22 42 17 C28.14 17 14.28 17 0 17 C0 11.39 0 5.78 0 0 Z " fill="#F5F5F6" transform="translate(36,226)"/>
<path d="M0 0 C0.60473145 0.27787354 1.20946289 0.55574707 1.83251953 0.84204102 C4.58971951 2.09816917 7.35696945 3.33043349 10.125 4.5625 C11.55199219 5.21895508 11.55199219 5.21895508 13.0078125 5.88867188 C19.80977958 9.00962741 19.80977958 9.00962741 27 8 C30.1297322 6.73817492 33.19266922 5.36507623 36.25 3.9375 C37.85786894 3.19335179 39.46717822 2.45230531 41.078125 1.71484375 C41.78356445 1.38605225 42.48900391 1.05726074 43.21582031 0.71850586 C45 0 45 0 47 0 C47.10832169 2.08218362 47.18573541 4.16599129 47.25 6.25 C47.29640625 7.41015625 47.3428125 8.5703125 47.390625 9.765625 C47 13 47 13 45.546875 15.234375 C38.79444876 19.91550485 31.51583007 20.50167331 23.5 20.4375 C22.61441406 20.45748047 21.72882813 20.47746094 20.81640625 20.49804688 C14.3773572 20.49331923 9.62344945 19.10373932 4 16 C3.15953125 15.56042969 2.3190625 15.12085938 1.453125 14.66796875 C-0.83748316 12.0386954 -0.38450005 9.70862624 -0.25 6.3125 C-0.21390625 5.13300781 -0.1778125 3.95351562 -0.140625 2.73828125 C-0.09421875 1.83464844 -0.0478125 0.93101562 0 0 Z " fill="#FBFDFD" transform="translate(95,133)"/>
<path d="M0 0 C3.3 0 6.6 0 10 0 C10 16.17 10 32.34 10 49 C4.06 49 -1.88 49 -8 49 C-7.566875 47.5975 -7.13375 46.195 -6.6875 44.75 C-3.1748553 33.01343834 -0.97509806 21.80387232 -0.4375 9.5625 C-0.37272461 8.17901367 -0.37272461 8.17901367 -0.30664062 6.76757812 C-0.20145149 4.51185554 -0.10031164 2.25594475 0 0 Z " fill="#F3F5F5" transform="translate(228,116)"/>
<path d="M0 0 C4.71362305 1.9901964 7.72172827 5.44345654 10 10 C10.67153505 17.65549957 8.77876869 23.54759041 3.9375 29.5625 C2 31 2 31 -1 31 C-1.16081055 30.36497559 -1.32162109 29.72995117 -1.48730469 29.07568359 C-2.22970284 26.17228196 -2.98967077 23.27375521 -3.75 20.375 C-4.00265625 19.37597656 -4.2553125 18.37695312 -4.515625 17.34765625 C-5.99027757 11.7808428 -7.56556484 7.61408898 -11 3 C-11 2.34 -11 1.68 -11 1 C-7.54849768 -0.72575116 -3.7810938 -0.36104194 0 0 Z " fill="#5BC8E2" transform="translate(182,51)"/>
<path d="M0 0 C0.99 0.33 1.98 0.66 3 1 C3 2.98 3 4.96 3 7 C3.66 7 4.32 7 5 7 C5.66 5.35 6.32 3.7 7 2 C7.66 2 8.32 2 9 2 C10.42041821 4.84083641 10.31452272 6.85477278 10 10 C8.375 12.375 8.375 12.375 6 14 C2.84255254 14.45106392 0.94992693 14.71076885 -1.66015625 12.7578125 C-3.36242242 10.52451869 -3.40251682 9.22128536 -3.375 6.4375 C-3.38273438 5.65246094 -3.39046875 4.86742188 -3.3984375 4.05859375 C-3.26695312 3.37925781 -3.13546875 2.69992188 -3 2 C-2.01 1.34 -1.02 0.68 0 0 Z " fill="#5FC5E1" transform="translate(146,72)"/>
<path d="M0 0 C5.61635858 0.82655843 10.34862837 3.39703815 15.4296875 5.8203125 C19.48915835 7.16162563 21.86767436 6.91220216 26 6 C26.969375 5.814375 27.93875 5.62875 28.9375 5.4375 C29.618125 5.293125 30.29875 5.14875 31 5 C31.495 6.485 31.495 6.485 32 8 C30.63484485 8.706847 29.25722137 9.38963646 27.875 10.0625 C26.72644531 10.63677734 26.72644531 10.63677734 25.5546875 11.22265625 C19.20291174 13.15538313 13.30794839 9.56144507 7.625 6.9375 C6.37783203 6.37192383 6.37783203 6.37192383 5.10546875 5.79492188 C3.06734412 4.86956644 1.0324133 3.9378163 -1 3 C-0.67 2.01 -0.34 1.02 0 0 Z " fill="#56B0D5" transform="translate(97,131)"/>
<path d="M0 0 C2.97 0 5.94 0 9 0 C8.5875 1.216875 8.175 2.43375 7.75 3.6875 C6.04249299 8.78574369 4.49783082 13.92897833 2.96484375 19.08203125 C2 22 2 22 0 26 C0 17.42 0 8.84 0 0 Z " fill="#F0F3F4" transform="translate(13,73)"/>
<path d="M0 0 C0.33 6.27 0.66 12.54 1 19 C-0.65 19 -2.3 19 -4 19 C-4 13.06 -4 7.12 -4 1 C-1 0 -1 0 0 0 Z " fill="#BEE1EE" transform="translate(153,124)"/>
<path d="M0 0 C0.99 0 1.98 0 3 0 C3 2.31 3 4.62 3 7 C1.68 7 0.36 7 -1 7 C-1.04254356 5.00045254 -1.04080783 2.99958364 -1 1 C-0.67 0.67 -0.34 0.34 0 0 Z " fill="#F8FBFC" transform="translate(151,136)"/>
<path d="M0 0 C0.66 0.33 1.32 0.66 2 1 C-0.97 3.64 -3.94 6.28 -7 9 C-7 6 -7 6 -4.625 3.375 C-2 1 -2 1 0 0 Z " fill="#E2F3F7" transform="translate(107,56)"/>
</svg>
